# xmcd
#
# Track frame offsets:
#	150
#	16145
#	28032
#	38887
#	59267
#	74370
#	85425
#	98490
#	115515
#	129345
#	144985
#	160282
#	178975
#	190065
#	201392
#	212422
#	227300
#	246167
#	267900
#	289145
#	304317
#
# Disc length: 4300 seconds
#
# Revision: 1
# Processed by: cddbd v1.5.2PL0 Copyright (c) Steve Scherf et al.
# Submitted via: audiograbber 1.83.01
#
DISCID=2410ca15
DTITLE=Red Norvo - The Modern Red Norvo [CD2]
DYEAR=1900
DGENRE=Jazz
TTITLE0=September Song (take 2 - master)
TTITLE1=Move (take 3 - master)
TTITLE2=I've Got You Under My Skin (take 4 - master)
TTITLE3=I'll Remember April (take 2)
TTITLE4=I'll Remember April (take 3)
TTITLE5=I Get A Kick Out Of You (take 5 - master)
TTITLE6=I Can't Believe That You're In Love With Me (take 5)
TTITLE7=Little White Lies (take 1)
TTITLE8=Have You Met Miss Jones? (take 6)
TTITLE9=Zing! Went the Strings Of My Heart (take 3 - master)
TTITLE10=If I Had You (take 4)
TTITLE11=If I Had You (take 2)
TTITLE12=This Can't Be Love (take 3 - master)
TTITLE13=This Can't Be Love (take 1)
TTITLE14=This Can't Be Love (take 2)
TTITLE15=Godchild (take 5)
TTITLE16=Godchild (take 1 - master)
TTITLE17=Godchild (take 2)
TTITLE18=Godchild (take 3)
TTITLE19=I'm Yours (take 3 with ending of take 4)
TTITLE20=I'm Yours (take 2)
EXTD=Red Norvo, vibes - Tal Farlow, guitar - Charles Mingus, bass. Tracks 1-10 re
EXTD=corded at United Broadcasting, Studio A, Chicago on October 31, 1950 - trac
EXTD=ks 11-21 recorded at Radio Recorders in Hollywood on April 13, 1951
EXTT0=
EXTT1=
EXTT2=
EXTT3=
EXTT4=
EXTT5=
EXTT6=
EXTT7=
EXTT8=
EXTT9=
EXTT10=
EXTT11=
EXTT12=
EXTT13=
EXTT14=
EXTT15=
EXTT16=
EXTT17=
EXTT18=
EXTT19=
EXTT20=
PLAYORDER=
